<svg xmlns="http://www.w3.org/2000/svg" xmlns:xlink="http://www.w3.org/1999/xlink" width="500" zoomAndPan="magnify" viewBox="0 0 375 374.999991" height="500" preserveAspectRatio="xMidYMid meet" version="1.0"><path fill="#edca8c" d="M 167.617188 180.585938 L 167.625 180.59375 C 167.625 180.585938 167.617188 180.585938 167.617188 180.585938 Z M 165.273438 178.847656 C 165.089844 178.742188 164.914062 178.65625 164.730469 178.566406 C 164.914062 178.65625 165.097656 178.742188 165.273438 178.847656 Z M 222.957031 265.730469 L 160.550781 203.324219 L 102.183594 261.691406 C 97.855469 266.019531 90.847656 266.019531 86.519531 261.691406 C 82.195312 257.363281 82.195312 250.355469 86.519531 246.027344 L 148.476562 184.074219 L 144.152344 179.738281 L 139.34375 184.539062 C 135.675781 188.207031 129.71875 188.207031 126.046875 184.539062 L 80.632812 139.128906 C 78.773438 137.269531 78.773438 134.253906 80.632812 132.398438 C 82.488281 130.542969 85.503906 130.542969 87.355469 132.398438 L 115.40625 160.441406 L 121.007812 154.839844 L 92.960938 126.796875 C 91.105469 124.941406 91.105469 121.925781 92.960938 120.074219 C 94.820312 118.210938 97.828125 118.210938 99.683594 120.074219 L 127.730469 148.121094 L 133.339844 142.519531 L 105.285156 114.464844 C 103.429688 112.609375 103.429688 109.601562 105.285156 107.746094 C 107.144531 105.886719 110.152344 105.886719 112.007812 107.746094 L 146.707031 142.445312 L 152.390625 148.121094 L 157.425781 153.160156 C 161.101562 156.832031 161.101562 162.785156 157.425781 166.457031 L 152.625 171.253906 L 158.808594 177.4375 C 159.914062 177.34375 161.027344 177.378906 162.121094 177.609375 L 172.511719 167.214844 L 180.996094 175.699219 L 172.5625 184.132812 C 172.761719 184.300781 172.984375 184.441406 173.175781 184.625 L 238.617188 250.066406 C 242.945312 254.394531 242.945312 261.402344 238.617188 265.730469 C 234.292969 270.058594 227.28125 270.058594 222.957031 265.730469 " fill-opacity="1" fill-rule="nonzero"/><path fill="#edca8c" d="M 175.84375 132.296875 C 186.414062 121.734375 223.421875 102.664062 234.484375 113.738281 C 245.546875 124.792969 226.480469 161.800781 215.917969 172.367188 C 205.347656 182.929688 187.820312 182.523438 176.75 171.460938 C 165.6875 160.390625 165.28125 142.863281 175.84375 132.296875 " fill-opacity="1" fill-rule="nonzero"/><path fill="#edca8c" d="M 265.882812 196.773438 C 268.960938 196.773438 271.46875 194.257812 271.46875 191.179688 C 271.46875 188.105469 268.960938 185.597656 265.882812 185.597656 C 262.808594 185.597656 260.300781 188.105469 260.300781 191.179688 C 260.300781 194.257812 262.808594 196.773438 265.882812 196.773438 Z M 254.035156 191.179688 C 254.035156 184.648438 259.351562 179.332031 265.882812 179.332031 C 272.417969 179.332031 277.734375 184.648438 277.734375 191.179688 C 277.734375 197.714844 272.417969 203.035156 265.882812 203.035156 C 259.351562 203.035156 254.035156 197.714844 254.035156 191.179688 " fill-opacity="1" fill-rule="nonzero"/><path fill="#edca8c" d="M 56.109375 185.597656 C 53.03125 185.597656 50.523438 188.105469 50.523438 191.179688 C 50.523438 194.257812 53.03125 196.773438 56.109375 196.773438 C 59.183594 196.773438 61.691406 194.257812 61.691406 191.179688 C 61.691406 188.105469 59.183594 185.597656 56.109375 185.597656 Z M 67.953125 191.179688 C 67.953125 197.714844 62.640625 203.035156 56.109375 203.035156 C 49.574219 203.035156 44.257812 197.714844 44.257812 191.179688 C 44.257812 184.648438 49.574219 179.332031 56.109375 179.332031 C 62.640625 179.332031 67.953125 184.648438 67.953125 191.179688 " fill-opacity="1" fill-rule="nonzero"/><path fill="#edca8c" d="M 262.460938 171.792969 C 262.269531 171.832031 262.070312 171.851562 261.878906 171.851562 C 260.40625 171.851562 259.085938 170.796875 258.8125 169.289062 C 256.890625 158.984375 253.382812 149.101562 248.363281 139.902344 C 247.535156 138.382812 248.097656 136.480469 249.613281 135.648438 C 251.140625 134.832031 253.042969 135.375 253.867188 136.902344 C 259.195312 146.683594 262.933594 157.191406 264.96875 168.144531 C 265.285156 169.839844 264.164062 171.484375 262.460938 171.792969 " fill-opacity="1" fill-rule="nonzero"/><path fill="#edca8c" d="M 203.867188 97.234375 C 203.425781 97.234375 202.972656 97.136719 202.546875 96.945312 C 176.367188 84.800781 145.46875 84.703125 119.214844 96.636719 C 117.632812 97.359375 115.78125 96.671875 115.066406 95.089844 C 114.351562 93.511719 115.050781 91.65625 116.621094 90.9375 C 144.535156 78.238281 177.355469 78.359375 205.179688 91.257812 C 206.753906 91.984375 207.433594 93.851562 206.710938 95.414062 C 206.179688 96.5625 205.046875 97.234375 203.867188 97.234375 " fill-opacity="1" fill-rule="nonzero"/><path fill="#edca8c" d="M 62.292969 169.289062 C 62.019531 170.796875 60.703125 171.851562 59.21875 171.851562 C 59.035156 171.851562 58.835938 171.832031 58.644531 171.792969 C 56.941406 171.484375 55.824219 169.847656 56.140625 168.144531 C 57.695312 159.75 60.28125 151.546875 63.828125 143.75 C 64.542969 142.179688 66.390625 141.492188 67.96875 142.195312 C 69.546875 142.910156 70.238281 144.765625 69.523438 146.34375 C 66.191406 153.675781 63.761719 161.402344 62.292969 169.289062 " fill-opacity="1" fill-rule="nonzero"/><path fill="#edca8c" d="M 74.824219 248.035156 C 73.8125 248.035156 72.820312 247.546875 72.222656 246.648438 C 65.757812 236.992188 60.96875 226.4375 57.96875 215.265625 C 57.519531 213.585938 58.511719 211.875 60.1875 211.425781 C 61.859375 211.027344 63.570312 211.96875 64.027344 213.636719 C 66.839844 224.144531 71.34375 234.082031 77.417969 243.160156 C 78.390625 244.597656 78 246.546875 76.5625 247.511719 C 76.023438 247.863281 75.421875 248.035156 74.824219 248.035156 " fill-opacity="1" fill-rule="nonzero"/><path fill="#edca8c" d="M 106.382812 271.664062 C 122.519531 282.09375 141.253906 287.597656 160.550781 287.597656 C 180.574219 287.597656 199.894531 281.703125 216.425781 270.542969 C 217.855469 269.570312 219.792969 269.945312 220.773438 271.375 C 221.746094 272.820312 221.371094 274.757812 219.933594 275.726562 C 202.363281 287.597656 181.828125 293.863281 160.550781 293.863281 C 140.046875 293.863281 120.136719 288.011719 102.988281 276.925781 C 101.535156 275.988281 101.113281 274.050781 102.058594 272.601562 C 102.992188 271.148438 104.941406 270.726562 106.382812 271.664062 " fill-opacity="1" fill-rule="nonzero"/><path fill="#edca8c" d="M 246.421875 247.828125 C 245.820312 247.828125 245.222656 247.65625 244.683594 247.304688 C 243.246094 246.351562 242.855469 244.398438 243.8125 242.957031 C 249.851562 233.890625 254.324219 223.96875 257.125 213.472656 C 257.566406 211.808594 259.261719 210.828125 260.957031 211.253906 C 262.632812 211.703125 263.625 213.421875 263.183594 215.09375 C 260.199219 226.246094 255.445312 236.792969 249.03125 246.433594 C 248.429688 247.339844 247.433594 247.828125 246.421875 247.828125 " fill-opacity="1" fill-rule="nonzero"/><path fill="#edca8c" d="M 350.101562 213.9375 L 300.78125 213.9375 C 299.511719 220.734375 297.757812 227.351562 295.554688 233.78125 L 350.101562 233.78125 Z M 308.792969 173.921875 C 309.269531 178.664062 309.507812 183.21875 309.507812 187.664062 C 309.507812 192.105469 309.269531 196.660156 308.792969 201.410156 L 350.546875 201.410156 L 350.546875 173.921875 Z M 300.78125 161.386719 L 350.101562 161.386719 L 350.101562 141.546875 L 295.554688 141.546875 C 297.757812 147.972656 299.511719 154.589844 300.78125 161.386719 Z M 288.03125 236.203125 C 288.058594 236.070312 288.03125 235.929688 288.074219 235.800781 C 291.183594 227.582031 293.492188 218.996094 294.949219 210.289062 C 294.996094 210.046875 295.097656 209.832031 295.195312 209.613281 C 296.351562 202.460938 296.984375 195.136719 296.984375 187.664062 C 296.984375 180.1875 296.351562 172.863281 295.195312 165.714844 C 295.097656 165.492188 294.996094 165.285156 294.949219 165.042969 C 293.492188 156.332031 291.183594 147.742188 288.074219 139.519531 C 288.03125 139.394531 288.058594 139.253906 288.03125 139.128906 C 268.417969 87.792969 218.679688 51.234375 160.550781 51.234375 C 85.320312 51.234375 24.121094 112.4375 24.121094 187.664062 C 24.121094 262.894531 85.320312 324.089844 160.550781 324.089844 C 218.679688 324.089844 268.417969 287.53125 288.03125 236.203125 Z M 160.550781 38.703125 C 219.867188 38.703125 274.027344 74.734375 297.347656 129.023438 L 350.546875 129.015625 L 350.546875 55.945312 C 350.546875 52.480469 353.347656 49.679688 356.8125 49.679688 C 360.273438 49.679688 363.078125 52.480469 363.078125 55.945312 L 363.078125 319.378906 C 363.078125 322.84375 360.273438 325.644531 356.8125 325.644531 C 353.347656 325.644531 350.546875 322.84375 350.546875 319.378906 L 350.546875 246.300781 L 297.347656 246.300781 C 274.027344 300.59375 219.867188 336.621094 160.550781 336.621094 C 78.414062 336.621094 11.59375 269.800781 11.59375 187.664062 C 11.59375 105.527344 78.414062 38.703125 160.550781 38.703125 " fill-opacity="1" fill-rule="nonzero"/></svg>